<svg height="1534" width="720" xmlns="http://www.w3.org/2000/svg">
<rect height="1534" fill="#555" width="720"></rect>
<text fill="#7f7" font-family="Courier New" font-size="12" xml:space="preserve">
<tspan x="10" y="26">21 megabytes installed</tspan>
<tspan x="10" y="42"></tspan>
<tspan x="10" y="58">node_modules</tspan>
<tspan x="10" y="74">└─┬ restify-mongoose@2.0.1 </tspan>
<tspan x="10" y="90">  ├─┬ async@2.3.0 </tspan>
<tspan x="10" y="106">  │ └── lodash@4.17.4 </tspan>
<tspan x="10" y="122">  ├─┬ mongoose@4.9.6 </tspan>
<tspan x="10" y="138">  │ ├── async@2.1.4 </tspan>
<tspan x="10" y="154">  │ ├── bson@1.0.4 </tspan>
<tspan x="10" y="170">  │ ├── hooks-fixed@2.0.0 </tspan>
<tspan x="10" y="186">  │ ├── kareem@1.4.0 </tspan>
<tspan x="10" y="202">  │ ├─┬ mongodb@2.2.26 </tspan>
<tspan x="10" y="218">  │ │ ├── es6-promise@3.2.1 </tspan>
<tspan x="10" y="234">  │ │ ├─┬ mongodb-core@2.1.10 </tspan>
<tspan x="10" y="250">  │ │ │ └─┬ require_optional@1.0.0 </tspan>
<tspan x="10" y="266">  │ │ │   ├── resolve-from@2.0.0 </tspan>
<tspan x="10" y="282">  │ │ │   └── semver@5.3.0 </tspan>
<tspan x="10" y="298">  │ │ └─┬ readable-stream@2.2.7 </tspan>
<tspan x="10" y="314">  │ │   ├── buffer-shims@1.0.0 </tspan>
<tspan x="10" y="330">  │ │   ├── inherits@2.0.3 </tspan>
<tspan x="10" y="346">  │ │   ├── isarray@1.0.0 </tspan>
<tspan x="10" y="362">  │ │   ├── process-nextick-args@1.0.7 </tspan>
<tspan x="10" y="378">  │ │   ├── string_decoder@1.0.0 </tspan>
<tspan x="10" y="394">  │ │   └── util-deprecate@1.0.2 </tspan>
<tspan x="10" y="410">  │ ├── mpath@0.2.1 </tspan>
<tspan x="10" y="426">  │ ├── mpromise@0.5.5 </tspan>
<tspan x="10" y="442">  │ ├─┬ mquery@2.3.0 </tspan>
<tspan x="10" y="458">  │ │ ├── bluebird@2.10.2 </tspan>
<tspan x="10" y="474">  │ │ ├─┬ debug@2.2.0 </tspan>
<tspan x="10" y="490">  │ │ │ └── ms@0.7.1 </tspan>
<tspan x="10" y="506">  │ │ └── sliced@0.0.5 </tspan>
<tspan x="10" y="522">  │ ├── ms@0.7.2 </tspan>
<tspan x="10" y="538">  │ ├── muri@1.2.1 </tspan>
<tspan x="10" y="554">  │ ├── regexp-clone@0.0.1 </tspan>
<tspan x="10" y="570">  │ └── sliced@1.0.1 </tspan>
<tspan x="10" y="586">  └─┬ restify@4.3.0 </tspan>
<tspan x="10" y="602">    ├── assert-plus@0.1.5 </tspan>
<tspan x="10" y="618">    ├─┬ backoff@2.5.0 </tspan>
<tspan x="10" y="634">    │ └── precond@0.2.3 </tspan>
<tspan x="10" y="650">    ├─┬ bunyan@1.8.10 </tspan>
<tspan x="10" y="666">    │ ├── dtrace-provider@0.8.1 </tspan>
<tspan x="10" y="682">    │ ├── moment@2.18.1 </tspan>
<tspan x="10" y="698">    │ ├─┬ mv@2.1.1 </tspan>
<tspan x="10" y="714">    │ │ ├─┬ mkdirp@0.5.1 </tspan>
<tspan x="10" y="730">    │ │ │ └── minimist@0.0.8 </tspan>
<tspan x="10" y="746">    │ │ ├── ncp@2.0.0 </tspan>
<tspan x="10" y="762">    │ │ └─┬ rimraf@2.4.5 </tspan>
<tspan x="10" y="778">    │ │   └─┬ glob@6.0.4 </tspan>
<tspan x="10" y="794">    │ │     ├── inflight@1.0.6 </tspan>
<tspan x="10" y="810">    │ │     ├─┬ minimatch@3.0.3 </tspan>
<tspan x="10" y="826">    │ │     │ └─┬ brace-expansion@1.1.7 </tspan>
<tspan x="10" y="842">    │ │     │   ├── balanced-match@0.4.2 </tspan>
<tspan x="10" y="858">    │ │     │   └── concat-map@0.0.1 </tspan>
<tspan x="10" y="874">    │ │     └── path-is-absolute@1.0.1 </tspan>
<tspan x="10" y="890">    │ └── safe-json-stringify@1.0.4 </tspan>
<tspan x="10" y="906">    ├─┬ csv@0.4.6 </tspan>
<tspan x="10" y="922">    │ ├── csv-generate@0.0.6 </tspan>
<tspan x="10" y="938">    │ ├── csv-parse@1.2.0 </tspan>
<tspan x="10" y="954">    │ ├── csv-stringify@0.0.8 </tspan>
<tspan x="10" y="970">    │ └── stream-transform@0.1.2 </tspan>
<tspan x="10" y="986">    ├─┬ dtrace-provider@0.6.0 </tspan>
<tspan x="10" y="1002">    │ └── nan@2.6.2 </tspan>
<tspan x="10" y="1018">    ├── escape-regexp-component@1.0.2 </tspan>
<tspan x="10" y="1034">    ├── formidable@1.1.1 </tspan>
<tspan x="10" y="1050">    ├─┬ http-signature@0.11.0 </tspan>
<tspan x="10" y="1066">    │ ├── asn1@0.1.11 </tspan>
<tspan x="10" y="1082">    │ └── ctype@0.5.3 </tspan>
<tspan x="10" y="1098">    ├── keep-alive-agent@0.0.1 </tspan>
<tspan x="10" y="1114">    ├─┬ lru-cache@4.0.2 </tspan>
<tspan x="10" y="1130">    │ ├── pseudomap@1.0.2 </tspan>
<tspan x="10" y="1146">    │ └── yallist@2.1.2 </tspan>
<tspan x="10" y="1162">    ├── mime@1.3.4 </tspan>
<tspan x="10" y="1178">    ├── negotiator@0.6.1 </tspan>
<tspan x="10" y="1194">    ├── node-uuid@1.4.8 </tspan>
<tspan x="10" y="1210">    ├─┬ once@1.4.0 </tspan>
<tspan x="10" y="1226">    │ └── wrappy@1.0.2 </tspan>
<tspan x="10" y="1242">    ├── qs@6.4.0 </tspan>
<tspan x="10" y="1258">    ├── semver@4.3.6 </tspan>
<tspan x="10" y="1274">    ├─┬ spdy@3.4.4 </tspan>
<tspan x="10" y="1290">    │ ├── handle-thing@1.2.5 </tspan>
<tspan x="10" y="1306">    │ ├── http-deceiver@1.2.7 </tspan>
<tspan x="10" y="1322">    │ ├── select-hose@2.0.0 </tspan>
<tspan x="10" y="1338">    │ └─┬ spdy-transport@2.0.18 </tspan>
<tspan x="10" y="1354">    │   ├── hpack.js@2.1.6 </tspan>
<tspan x="10" y="1370">    │   ├── obuf@1.1.1 </tspan>
<tspan x="10" y="1386">    │   └─┬ wbuf@1.7.2 </tspan>
<tspan x="10" y="1402">    │     └── minimalistic-assert@1.0.0 </tspan>
<tspan x="10" y="1418">    ├── tunnel-agent@0.4.3 </tspan>
<tspan x="10" y="1434">    ├─┬ vasync@1.6.3 </tspan>
<tspan x="10" y="1450">    │ └── verror@1.6.0 </tspan>
<tspan x="10" y="1466">    └─┬ verror@1.9.0 </tspan>
<tspan x="10" y="1482">      ├── assert-plus@1.0.0 </tspan>
<tspan x="10" y="1498">      ├── core-util-is@1.0.2 </tspan>
<tspan x="10" y="1514">      └── extsprintf@1.2.0</tspan>
</text>
</svg>
